<?xml version="1.0" encoding="UTF-8" standalone="no"?>
<svg
   xmlns:dc="http://purl.org/dc/elements/1.1/"
   xmlns:cc="http://creativecommons.org/ns#"
   xmlns:rdf="http://www.w3.org/1999/02/22-rdf-syntax-ns#"
   xmlns:svg="http://www.w3.org/2000/svg"
   xmlns="http://www.w3.org/2000/svg"
   xmlns:sodipodi="http://sodipodi.sourceforge.net/DTD/sodipodi-0.dtd"
   xmlns:inkscape="http://www.inkscape.org/namespaces/inkscape"
   width="1920"
   height="1080"
   viewBox="0 0 508.00001 285.74999"
   version="1.1"
   id="svg3138"
   inkscape:version="1.0.1 (3bc2e813f5, 2020-09-07)"
   sodipodi:docname="fondo.svg">
  <defs
     id="defs3132" />
  <sodipodi:namedview
     id="base"
     pagecolor="#ffffff"
     bordercolor="#666666"
     borderopacity="1.0"
     inkscape:pageopacity="0.0"
     inkscape:pageshadow="2"
     inkscape:zoom="0.49497475"
     inkscape:cx="680.20056"
     inkscape:cy="619.75378"
     inkscape:document-units="mm"
     inkscape:current-layer="layer1"
     inkscape:document-rotation="0"
     showgrid="false"
     units="px"
     inkscape:window-width="1920"
     inkscape:window-height="1017"
     inkscape:window-x="1912"
     inkscape:window-y="-8"
     inkscape:window-maximized="1" />
  <metadata
     id="metadata3135">
    <rdf:RDF>
      <cc:Work
         rdf:about="">
        <dc:format>image/svg+xml</dc:format>
        <dc:type
           rdf:resource="http://purl.org/dc/dcmitype/StillImage" />
        <dc:title></dc:title>
      </cc:Work>
    </rdf:RDF>
  </metadata>
  <g
     inkscape:label="Capa 1"
     inkscape:groupmode="layer"
     id="layer1">
    <path
       style="fill:none;stroke:#000000;stroke-width:0.264583px;stroke-linecap:butt;stroke-linejoin:miter;stroke-opacity:1"
       d="M 0.53453905,131.49661 V -1.0690781"
       id="path3841" />
    <path
       style="fill:none;stroke:#000000;stroke-width:0.264583px;stroke-linecap:butt;stroke-linejoin:miter;stroke-opacity:1"
       d="M 0.53453905,-1.0690781 11.783671,0.57538839"
       id="path3843" />
    <path
       style="fill:#dc0000;fill-opacity:1;stroke:#000000;stroke-width:0.543642;stroke-miterlimit:4;stroke-dasharray:0, 5.98003999999999980;stroke-dashoffset:0;stroke-opacity:0"
       d="M 0.53453905,64.957244 V -1.0690781 l 5.33508405,0.75813024 c 5.1104629,0.7262113 5.4387539,0.8552854 7.7974289,3.06571856 1.354292,1.2691736 17.272659,15.6709323 35.37415,32.0039103 13.567102,12.241597 25.370289,22.950389 30.510113,27.671336 1.71783,1.577834 2.691344,2.486806 2.737624,2.560602 C 82.525375,65.367588 17.236652,118.08864 1.2185241,130.45548 0.67214305,130.87732 0.53453905,117.70047 0.53453905,64.957244 Z"
       id="path3845"
       sodipodi:nodetypes="scsssssss" />
    <path
       style="fill:#ffffff;fill-opacity:1;stroke:#000000;stroke-width:0.382143;stroke-miterlimit:4;stroke-dasharray:0, 4.20357000000000003;stroke-dashoffset:0;stroke-opacity:0.562249"
       d="M 77.040473,60.363946 C 74.545831,58.075826 58.842514,43.687352 42.144213,28.389559 L 11.783671,0.57538839 l 2.201318,-0.03782 c 1.210725,-0.0208 15.043058,-0.127849 30.73852,-0.237882 15.695461,-0.110033 46.524145,-0.331136 68.508181,-0.49134 21.98404,-0.160205 41.95311,-0.26577 44.37572,-0.23459 l 4.40473,0.05669 -8.27899,6.70453301 C 108.90599,42.637126 81.969269,64.398806 81.791133,64.455616 c -0.118221,0.0377 -2.256017,-1.80356 -4.75066,-4.09167 z"
       id="path3875" />
    <path
       style="fill:#e6e6e6;stroke:#530000;stroke-width:0.264583px;stroke-linecap:butt;stroke-linejoin:miter;stroke-opacity:0"
       d="M 0,285.561 0.19358197,186.09711 108.66815,285.561 Z"
       id="path3877" />
    <path
       style="fill:#ffffff;stroke:#000000;stroke-width:0.264583px;stroke-linecap:butt;stroke-linejoin:miter;stroke-opacity:0.40160644"
       d="m 298.54458,287.91938 93.98617,-78.51461 83.72461,78.81084 z"
       id="path3879" />
    <path
       style="fill:#dc0000;stroke:#000000;stroke-width:0.264583px;stroke-linecap:butt;stroke-linejoin:miter;stroke-opacity:1;fill-opacity:1"
       d="m 476.27428,287.582 -83.74353,-78.17723 114.99061,-91.34061 1.89437,168.44876 z"
       id="path3883" />
    <path
       style="fill:#f2f2f2;stroke:#000000;stroke-width:0.264583px;stroke-linecap:butt;stroke-linejoin:miter;stroke-opacity:0"
       d="M 366.97404,-0.14394543 496.58677,127.75483 507.52136,118.06416 508.34662,0 Z"
       id="path3885" />
  </g>
</svg>
